<?xml version="1.0" standalone="no"?>
<!DOCTYPE svg PUBLIC "-//W3C//DTD SVG 20010904//EN"
 "http://www.w3.org/TR/2001/REC-SVG-20010904/DTD/svg10.dtd">
<svg version="1.0" xmlns="http://www.w3.org/2000/svg"
 width="225.000000pt" height="225.000000pt" viewBox="0 0 225.000000 225.000000"
 preserveAspectRatio="xMidYMid meet">

<g transform="translate(0.000000,225.000000) scale(0.100000,-0.100000)"
fill="#000000" stroke="none">
<path d="M856 1848 c-37 -28 -76 -112 -76 -163 1 -69 34 -123 136 -221 90 -87
94 -92 95 -135 1 -42 1 -43 11 -16 18 49 1 93 -61 160 -32 34 -74 83 -94 109
-62 82 -60 179 4 253 35 39 28 45 -15 13z"/>
<path d="M940 1745 c0 -34 32 -90 91 -158 80 -93 106 -132 119 -187 22 -82
-14 -141 -106 -176 l-39 -15 45 6 c64 8 101 34 128 85 18 35 22 55 18 92 -8
71 -40 124 -142 230 -52 53 -94 103 -94 111 0 9 -4 19 -10 22 -5 3 -10 -1 -10
-10z"/>
<path d="M1405 1288 c127 -70 62 -157 -152 -204 -56 -12 -125 -17 -243 -17
-178 0 -278 14 -369 54 -57 24 -105 73 -96 97 5 13 3 13 -11 1 -14 -12 -16
-27 -11 -104 11 -162 66 -310 152 -402 l46 -48 -31 47 c-55 85 -99 214 -115
337 -7 50 -6 53 11 46 139 -55 258 -76 449 -76 159 0 286 17 383 51 30 11 57
18 60 16 7 -8 -20 -121 -44 -181 -52 -130 -156 -245 -273 -303 -73 -36 -78
-37 -189 -37 -108 0 -112 -1 -80 -15 23 -10 68 -15 143 -15 102 0 114 2 175
31 157 75 269 222 319 418 22 88 32 103 78 112 40 8 73 -22 73 -68 0 -50 -50
-146 -111 -212 -49 -54 -51 -58 -20 -40 46 27 124 114 151 170 13 25 25 66 28
90 10 90 -35 132 -128 121 -49 -6 -50 -6 -50 22 0 35 -39 73 -103 100 -52 23
-75 27 -42 9z"/>
<path d="M1439 536 c31 -33 17 -57 -49 -85 -102 -44 -188 -55 -444 -55 -169
-1 -225 -4 -190 -10 27 -5 146 -9 264 -9 183 -1 230 3 313 20 106 23 182 55
191 80 8 20 -20 52 -61 69 -45 19 -50 18 -24 -10z"/>
</g>
</svg>
